<?xml version="1.0" encoding="utf-8"?>
<!-- Generator: Adobe Illustrator 26.4.1, SVG Export Plug-In . SVG Version: 6.00 Build 0)  -->
<svg version="1.1" id="Layer_1" xmlns="http://www.w3.org/2000/svg" xmlns:xlink="http://www.w3.org/1999/xlink" x="0px" y="0px"
	 viewBox="0 0 1213 386.5" style="enable-background:new 0 0 1213 386.5;" xml:space="preserve">
<style type="text/css">
	.st0{fill:#010101;}
</style>
<g>
	<path class="st0" d="M1066.59,98.73h-38.95l-78.89,68.55l-37.13-68.55h-43.65l50.46,94.89l-15.68,13.62l11.54,22.15l15.91-13.65
		l37.75,70.99h45.51l-52.68-97.24L1066.59,98.73z M811.28,286.74h36.18l17.97-15.42l-12.06-21.16L811.28,286.74z M598.64,153.57
		c1.12-37.3-64.16-30.96-85.43-30.96l-22.01,65.29h35.81C527.02,187.89,597.52,190.87,598.64,153.57 M880.32,189.98l51.45,96.76
		h-43.65l-37.85-70.88L768,286.74H594.16l24.62-74.61h41.04l-17.16,51.11h115.65l80.37-69.09l-38.22-71.55H690.04l-17.91,54.84
		h103.7l-6.34,22.76H622.89l7.2-21.53c-30.68,33-95.24,32.77-95.24,32.77h-51.69L458,286.74h-13.8l-13.06-39.54l48.87-148.47h69.39
		c71.7,0,88.82,27.13,92.11,45.8l15.32-45.8h174.96l36.98,69.55l16.54-14.21l11.73,21.51L880.32,189.98z M986.23,98.73h-36.56
		l-18.73,16.1l12.75,20.55L986.23,98.73z M371.46,98.73l62.67,188.02h-41.78l-24.01-80.58H286.4l24.99-26.49h49.05l-15.55-52.2
		L193.14,286.74H148L332.29,98.73H371.46z"/>
</g>
</svg>
