<?xml version="1.0" encoding="utf-8"?>
<!-- Generator: Adobe Illustrator 26.4.1, SVG Export Plug-In . SVG Version: 6.00 Build 0)  -->
<svg version="1.1" id="Layer_1" xmlns="http://www.w3.org/2000/svg" xmlns:xlink="http://www.w3.org/1999/xlink" x="0px" y="0px"
	 viewBox="0 0 1280.28 393.89" style="enable-background:new 0 0 1280.28 393.89;" xml:space="preserve">
<style type="text/css">
	.st0{fill:#27ABE2;}
</style>
<g>
	<path class="st0" d="M824.42,240.48v18.24c0,21.97-10.98,34.52-32.17,34.52s-32.17-12.55-32.17-34.52v-71.39
		c0-21.97,10.98-34.52,32.17-34.52s32.17,12.55,32.17,34.52v13.34h-20.4v-14.71c0-9.81-4.31-13.53-11.18-13.53
		s-11.18,3.73-11.18,13.53v74.14c0,9.81,4.31,13.34,11.18,13.34s11.18-3.53,11.18-13.34v-19.61H824.42z"/>
	<path class="st0" d="M839.52,154.38h21.57v117.68h35.5v19.61h-57.07V154.38z"/>
	<path class="st0" d="M906.21,187.33c0-21.97,11.57-34.52,32.75-34.52s32.75,12.55,32.75,34.52v71.39
		c0,21.97-11.57,34.52-32.75,34.52s-32.75-12.55-32.75-34.52V187.33z M927.78,260.09c0,9.81,4.31,13.53,11.18,13.53
		c6.86,0,11.18-3.73,11.18-13.53v-74.14c0-9.81-4.31-13.53-11.18-13.53c-6.86,0-11.18,3.73-11.18,13.53V260.09z"/>
	<path class="st0" d="M1008.2,154.38v105.91c0,9.81,4.32,13.34,11.18,13.34c6.86,0,11.18-3.53,11.18-13.34V154.38h20.4v104.54
		c0,21.97-10.98,34.52-32.16,34.52c-21.18,0-32.17-12.55-32.17-34.52V154.38H1008.2z"/>
	<path class="st0" d="M1067.63,154.38h34.13c21.58,0,32.17,11.96,32.17,33.93v69.43c0,21.97-10.59,33.93-32.17,33.93h-34.13V154.38z
		 M1089.2,173.99v98.06h12.16c6.86,0,10.98-3.53,10.98-13.34v-71.39c0-9.81-4.12-13.34-10.98-13.34H1089.2z"/>
</g>
<g>
	<path d="M481.18,291.67h30.49c0.25,0,0.49-0.11,0.65-0.3l60.53-70.2c0.35-0.41,0.99-0.4,1.33,0.03l55.85,70.15
		c0.16,0.21,0.41,0.33,0.68,0.33h38.08c0.72,0,1.13-0.84,0.68-1.4l-74.78-94.23c-0.26-0.33-0.25-0.8,0.03-1.11l11.07-12.33
		c0.28-0.31,0.3-0.78,0.04-1.11l-14.37-18.2c-0.33-0.41-0.94-0.44-1.3-0.06l-11.06,11.6c-0.36,0.38-0.97,0.35-1.3-0.05l-56.22-69.49
		c-0.16-0.2-0.41-0.32-0.67-0.32h-38.03c-0.72,0-1.13,0.84-0.68,1.4l74.68,93.52c0.26,0.32,0.25,0.79-0.02,1.1l-76.35,89.26
		C480.05,290.8,480.45,291.67,481.18,291.67z"/>
	<path d="M558.46,290.24l26.85-31.55c0.34-0.4,0.96-0.41,1.31-0.01l15.04,17.09c0.28,0.32,0.29,0.8,0.01,1.13l-12.16,14.45
		c-0.16,0.2-0.41,0.31-0.66,0.31h-29.73C558.38,291.67,557.98,290.8,558.46,290.24z"/>
	<path d="M627.11,120.9l14.69,17.09c0.34,0.4,0.95,0.4,1.3,0.01l28.36-31.56c0.5-0.56,0.11-1.44-0.64-1.44h-30.42
		c-0.25,0-0.49,0.11-0.65,0.3l-12.62,14.47C626.83,120.09,626.83,120.57,627.11,120.9z"/>
	<path d="M562.04,105h37.34c0.26,0,0.51,0.12,0.67,0.32l56.03,69.01c0.34,0.42,0.98,0.43,1.33,0.01l58.46-69.04
		c0.16-0.19,0.41-0.31,0.66-0.31h32.26c0.74,0,1.14,0.87,0.65,1.43l-76.42,88.48c-0.27,0.32-0.28,0.78-0.02,1.11l75.89,94.24
		c0.46,0.57,0.05,1.41-0.67,1.41h-38.45c-0.26,0-0.51-0.12-0.67-0.32l-56.99-70.57c-0.33-0.41-0.96-0.43-1.32-0.03l-10.66,11.87
		c-0.37,0.41-1.01,0.38-1.34-0.06L625.13,214c-0.23-0.31-0.22-0.74,0.02-1.05l9.72-12.36c0.25-0.31,0.25-0.76,0-1.07l-73.5-93.12
		C560.92,105.83,561.32,105,562.04,105z"/>
	<path d="M400.92,123.23c98.33-1.25,96.86,151.02,0.49,148.53C306.76,272.75,303.33,123.98,400.92,123.23z M401.66,293.97
		c148.35-0.25,148.11-192.21-0.49-191.71C252.57,103.51,260.91,296.72,401.66,293.97z"/>
	<path d="M281.46,221.05c-5.29-7.18-12.24-12.37-19.81-16.75c-7.78-4.49-20.7-10.18-20.7-10.18l0,0c-0.71-0.28-0.74-1.27-0.05-1.59
		l0.39-0.18c0,0,19.44-8.16,27.47-15.24c10.08-8.88,15.91-19.93,14.81-34c-0.44-5.67-2.24-11.17-5.39-15.9
		c-6.38-9.6-15.63-14.69-25.71-18.33c-8.54-3.09-17.41-4.92-26.45-5.48c-8.35-0.52-16.73-0.75-25.09-0.79
		c-16.22-0.09-47.76-0.05-53.36-0.04c-0.48,0-0.86,0.39-0.86,0.86l-0.13,189.14c0,0.48,0.38,0.86,0.86,0.86
		c5.88,0.02,40.4,0.13,59.67,0.23c12.56,0.07,25.05-0.43,37.38-3.02c9.18-1.93,18.03-4.84,25.97-10.09
		c10.84-7.17,17.45-17.23,19.19-30.33C291.1,239.35,287.84,229.71,281.46,221.05z M181.66,123.27c0-0.44,0.32-0.8,0.76-0.86
		c7.33-0.91,65.41-7.01,65.64,28.81c0.23,35.77-58.08,32.5-65.6,31.93c-0.45-0.03-0.8-0.41-0.8-0.86V123.27z M181.85,273.37v-65.74
		c0-0.45,0.35-0.83,0.8-0.86c8.2-0.56,76.55-4.08,76.78,35.18c0.23,39.31-68.74,33.14-76.81,32.28
		C182.18,274.18,181.85,273.81,181.85,273.37z"/>
</g>
</svg>
