<?xml version="1.0" encoding="utf-8"?>
<!-- Generator: Adobe Illustrator 26.4.1, SVG Export Plug-In . SVG Version: 6.00 Build 0)  -->
<svg version="1.1" id="Layer_1" xmlns="http://www.w3.org/2000/svg" xmlns:xlink="http://www.w3.org/1999/xlink" x="0px" y="0px"
	 viewBox="0 0 1422.28 393.89" style="enable-background:new 0 0 1422.28 393.89;" xml:space="preserve">
<style type="text/css">
	.st0{fill:#1DACE2;}
</style>
<g>
	<path d="M481.18,291.67h30.49c0.25,0,0.49-0.11,0.65-0.3l60.53-70.2c0.35-0.41,0.99-0.4,1.33,0.03l55.85,70.15
		c0.16,0.21,0.41,0.33,0.68,0.33h38.08c0.72,0,1.13-0.84,0.68-1.4l-74.78-94.23c-0.26-0.33-0.25-0.8,0.03-1.11l11.07-12.33
		c0.28-0.31,0.3-0.78,0.04-1.11l-14.37-18.2c-0.33-0.41-0.94-0.44-1.3-0.06l-11.06,11.6c-0.36,0.38-0.97,0.35-1.3-0.05l-56.22-69.49
		c-0.16-0.2-0.41-0.32-0.67-0.32h-38.03c-0.72,0-1.13,0.84-0.68,1.4l74.68,93.52c0.26,0.32,0.25,0.79-0.02,1.1l-76.35,89.26
		C480.05,290.8,480.45,291.67,481.18,291.67z"/>
	<path d="M558.46,290.24l26.85-31.55c0.34-0.4,0.96-0.41,1.31-0.01l15.04,17.09c0.28,0.32,0.29,0.8,0.01,1.13l-12.16,14.45
		c-0.16,0.2-0.41,0.31-0.66,0.31h-29.73C558.38,291.67,557.98,290.8,558.46,290.24z"/>
	<path d="M627.11,120.9l14.69,17.09c0.34,0.4,0.95,0.4,1.3,0.01l28.36-31.56c0.5-0.56,0.11-1.44-0.64-1.44h-30.42
		c-0.25,0-0.49,0.11-0.65,0.3l-12.62,14.47C626.83,120.09,626.83,120.57,627.11,120.9z"/>
	<path d="M562.04,105h37.34c0.26,0,0.51,0.12,0.67,0.32l56.03,69.01c0.34,0.42,0.98,0.43,1.33,0.01l58.46-69.04
		c0.16-0.19,0.41-0.31,0.66-0.31h32.26c0.74,0,1.14,0.87,0.65,1.43l-76.42,88.48c-0.27,0.32-0.28,0.78-0.02,1.11l75.89,94.24
		c0.46,0.57,0.05,1.41-0.67,1.41h-38.45c-0.26,0-0.51-0.12-0.67-0.32l-56.99-70.57c-0.33-0.41-0.96-0.43-1.32-0.03l-10.66,11.87
		c-0.37,0.41-1.01,0.38-1.34-0.06L625.13,214c-0.23-0.31-0.22-0.74,0.02-1.05l9.72-12.36c0.25-0.31,0.25-0.76,0-1.07l-73.5-93.12
		C560.92,105.83,561.32,105,562.04,105z"/>
	<path d="M400.92,123.23c98.33-1.25,96.86,151.02,0.49,148.53C306.76,272.75,303.33,123.98,400.92,123.23z M401.66,293.97
		c148.35-0.25,148.11-192.21-0.49-191.71C252.57,103.51,260.91,296.72,401.66,293.97z"/>
	<path d="M281.46,221.05c-5.29-7.18-12.24-12.37-19.81-16.75c-7.78-4.49-20.7-10.18-20.7-10.18l0,0c-0.71-0.28-0.74-1.27-0.05-1.59
		l0.39-0.18c0,0,19.44-8.16,27.47-15.24c10.08-8.88,15.91-19.93,14.81-34c-0.44-5.67-2.24-11.17-5.39-15.9
		c-6.38-9.6-15.63-14.69-25.71-18.33c-8.54-3.09-17.41-4.92-26.45-5.48c-8.35-0.52-16.73-0.75-25.09-0.79
		c-16.22-0.09-47.76-0.05-53.36-0.04c-0.48,0-0.86,0.39-0.86,0.86l-0.13,189.14c0,0.48,0.38,0.86,0.86,0.86
		c5.88,0.02,40.4,0.13,59.67,0.23c12.56,0.07,25.05-0.43,37.38-3.02c9.18-1.93,18.03-4.84,25.97-10.09
		c10.84-7.17,17.45-17.23,19.19-30.33C291.1,239.35,287.84,229.71,281.46,221.05z M181.66,123.27c0-0.44,0.32-0.8,0.76-0.86
		c7.33-0.91,65.41-7.01,65.64,28.81c0.23,35.77-58.08,32.5-65.6,31.93c-0.45-0.03-0.8-0.41-0.8-0.86V123.27z M181.85,273.37v-65.74
		c0-0.45,0.35-0.83,0.8-0.86c8.2-0.56,76.55-4.08,76.78,35.18c0.23,39.31-68.74,33.14-76.81,32.28
		C182.18,274.18,181.85,273.81,181.85,273.37z"/>
</g>
<g>
	<path class="st0" d="M760.15,258.78v-7.8h20.28v9.36c0,9.75,4.29,13.26,11.12,13.26s11.12-3.51,11.12-13.65
		c0-11.31-4.29-18.53-18.33-30.81c-17.94-15.8-23.79-26.91-23.79-42.51c0-21.45,11.12-33.93,31.98-33.93
		c20.87,0,31.2,12.48,31.2,34.32v5.66h-20.28v-7.02c0-9.75-3.9-13.46-10.73-13.46s-10.73,3.71-10.73,13.07
		c0,9.95,4.49,17.16,18.53,29.45c17.94,15.8,23.6,26.72,23.6,43.68c0,22.23-11.31,34.71-32.37,34.71S760.15,280.62,760.15,258.78z"
		/>
	<path class="st0" d="M853.17,174.14h-22.43v-19.5h66.3v19.5h-22.43v117h-21.45V174.14z"/>
	<path class="st0" d="M905.04,258.78v-71.76c0-21.84,11.5-34.32,32.57-34.32c21.06,0,32.57,12.48,32.57,34.32v71.76
		c0,21.84-11.5,34.32-32.57,34.32C916.54,293.1,905.04,280.62,905.04,258.78z M948.72,260.14v-74.49c0-9.75-4.29-13.46-11.12-13.46
		c-6.83,0-11.12,3.71-11.12,13.46v74.49c0,9.75,4.29,13.46,11.12,13.46C944.43,273.6,948.72,269.89,948.72,260.14z"/>
	<path class="st0" d="M984.59,154.64h31.79c22.23,0,31.79,10.34,31.79,31.4v8.39c0,14.04-4.49,23.01-14.04,26.91v0.39
		c10.73,3.31,14.24,13.46,14.24,28.86v23.99c0,6.63,0.2,11.51,2.34,16.58h-21.84c-1.17-3.51-1.95-5.66-1.95-16.77v-24.96
		c0-12.68-3.71-16.77-13.46-16.77h-7.41v58.5h-21.45V154.64z M1013.85,213.14c8,0,12.87-3.51,12.87-14.43v-10.53
		c0-9.75-3.32-14.04-10.92-14.04h-9.75v39H1013.85z"/>
	<path class="st0" d="M1079.76,154.64h29.06l22.23,136.51h-21.45l-3.9-27.11v0.39h-24.38l-3.9,26.72h-19.89L1079.76,154.64z
		 M1103.16,245.91l-9.56-67.47h-0.39l-9.36,67.47H1103.16z"/>
	<path class="st0" d="M1139.42,258.78v-71.76c0-21.84,10.92-34.32,31.98-34.32c21.06,0,31.98,12.48,31.98,34.32v11.7h-20.28v-13.07
		c0-9.75-4.29-13.46-11.12-13.46c-6.83,0-11.12,3.71-11.12,13.46v74.69c0,9.75,4.29,13.26,11.12,13.26
		c6.83,0,11.12-3.51,11.12-13.26v-26.72h-10.73v-19.5h31.01v44.66c0,21.84-10.92,34.32-31.98,34.32
		C1150.34,293.1,1139.42,280.62,1139.42,258.78z"/>
	<path class="st0" d="M1217.23,154.64h58.5v19.5h-37.05v36.08h29.45v19.5h-29.45v41.93h37.05v19.5h-58.5V154.64z"/>
</g>
</svg>
