<?xml version="1.0" encoding="UTF-8"?>
<svg id="Layer_1" xmlns="http://www.w3.org/2000/svg" version="1.1" viewBox="0 0 1022 387">
  <!-- Generator: Adobe Illustrator 29.0.0, SVG Export Plug-In . SVG Version: 2.1.0 Build 186)  -->
  <defs>
    <style>
      .st0, .st1 {
        isolation: isolate;
      }

      .st1 {
        fill: #00aeef;
        font-family: BebasNeue, 'Bebas Neue';
        font-size: 188px;
      }
    </style>
  </defs>
  <g>
    <path d="M405.1,286.4c151.3-.2,151.1-192.6-.5-192.1-151.6,1.2-143.1,194.8.5,192.1M404.3,115.3c100.3-1.2,98.8,151.3.5,148.8-96.5,1-100-148.1-.5-148.8"/>
    <path d="M180.9,266.5v-67.4s78.9-6.6,79.1,35.2c.3,41.8-79.1,32.3-79.1,32.3M180.7,114.6s67.5-9.6,67.7,28.8c.2,38.3-67.7,31.9-67.7,31.9v-60.7ZM282.5,213.4c-5.4-7.2-12.5-12.4-20.2-16.8-7.9-4.5-21.1-10.2-21.1-10.2l-1.9-.7,2.3-1s19.8-8.2,28-15.3c10.1-8.8,16-19.6,15.1-33.4-.5-7.3-3.1-13.9-7.8-19.6-6.3-7.7-14.8-12.1-24-15.4-8.7-3.1-17.8-4.9-27-5.5-8.5-.5-17.1-.8-25.6-.8-18.2,0-55.3,0-55.3,0v191.2c-.1,0,40.1.1,61.6.2,12.8,0,25.6-.4,38.1-3,9.4-1.9,18.4-4.9,26.5-10.1,11.1-7.2,17.8-17.3,19.6-30.4,1.5-10.9-1.9-20.6-8.4-29.3"/>
    <polygon points="484.3 284.1 517.7 284.1 580.4 212.7 638.3 284.1 679.4 284.1 601.5 187.7 613.8 174.3 598 154.7 585.4 167.8 527.2 97 486.1 97 563.9 192.7 484.3 284.1"/>
    <polygon points="566.8 97.1 607.2 97.1 665.2 167.4 725.8 97.1 761.1 97.1 681.4 187.7 760.4 284.1 718.9 284.1 659.9 212.3 647.6 225.7 632.6 205.8 643.4 192.3 566.8 97.1"/>
    <polygon points="563.8 284.1 593 250.3 609.6 268.7 596.4 284.1 563.8 284.1"/>
    <polygon points="634.5 112.4 650.7 130.9 681.6 97.1 648.2 97.1 634.5 112.4"/>
  </g>
  <g class="st0">
    <text class="st1" transform="translate(772 284)"><tspan x="0" y="0">AI</tspan></text>
  </g>
</svg>