<?xml version="1.0" encoding="utf-8"?>
<!-- Generator: Adobe Illustrator 26.4.1, SVG Export Plug-In . SVG Version: 6.00 Build 0)  -->
<svg version="1.1" id="Layer_1" xmlns="http://www.w3.org/2000/svg" xmlns:xlink="http://www.w3.org/1999/xlink" x="0px" y="0px"
	 viewBox="0 0 909.58 388.11" style="enable-background:new 0 0 909.58 388.11;" xml:space="preserve">
<style type="text/css">
	.st0{fill:#2D71B8;}
</style>
<g>
	<path class="st0" d="M405.51,290.19c151.31-0.25,151.06-192.58-0.5-192.08C253.45,99.36,261.95,292.94,405.51,290.19
		 M404.76,119.12c100.29-1.25,98.79,151.31,0.5,148.81C308.72,268.93,305.22,119.87,404.76,119.12"/>
	<path class="st0" d="M181.31,270.32v-67.44c0,0,78.88-6.65,79.13,35.18C260.7,279.9,181.31,270.32,181.31,270.32 M181.13,118.4
		c0,0,67.47-9.55,67.72,28.76c0.25,38.31-67.72,31.92-67.72,31.92V118.4z M282.91,217.13c-5.4-7.19-12.48-12.4-20.21-16.78
		c-7.94-4.5-21.12-10.2-21.12-10.2l-1.92-0.73l2.27-1.04c0,0,19.82-8.18,28.02-15.27c10.13-8.76,16.05-19.63,15.15-33.43
		c-0.48-7.32-3.09-13.87-7.79-19.57c-6.34-7.71-14.82-12.11-23.98-15.36c-8.71-3.09-17.75-4.93-26.97-5.49
		c-8.52-0.52-17.06-0.75-25.59-0.79c-18.19-0.09-55.29-0.04-55.29-0.04l-0.13,191.23c0,0,40.21,0.12,61.74,0.24
		c12.8,0.07,25.55-0.43,38.13-3.02c9.37-1.94,18.39-4.85,26.49-10.11c11.06-7.18,17.8-17.26,19.57-30.38
		C292.75,235.46,289.42,225.8,282.91,217.13"/>
	<polygon class="st0" points="484.71,287.88 518.12,287.88 580.81,216.45 638.7,287.88 679.8,287.88 601.93,191.49 614.22,178.04 
		598.47,158.46 585.8,171.52 527.57,100.81 486.53,100.81 564.29,196.48 	"/>
	<polygon class="st0" points="567.27,100.86 607.59,100.86 665.68,171.13 726.26,100.86 761.5,100.86 681.81,191.49 760.83,287.88 
		719.35,287.88 660.3,216.07 648.02,229.51 633.04,209.53 643.79,196.09 	"/>
	<polygon class="st0" points="564.2,287.88 593.48,254.09 610,272.52 596.84,287.88 	"/>
	<polygon class="st0" points="634.96,116.22 651.09,134.65 682,100.86 648.59,100.86 	"/>
</g>
</svg>
