<?xml version="1.0" encoding="utf-8"?>
<!-- Generator: Adobe Illustrator 26.4.1, SVG Export Plug-In . SVG Version: 6.00 Build 0)  -->
<svg version="1.1" id="Layer_1" xmlns="http://www.w3.org/2000/svg" xmlns:xlink="http://www.w3.org/1999/xlink" x="0px" y="0px"
	 viewBox="0 0 1115 387.5" style="enable-background:new 0 0 1115 387.5;" xml:space="preserve">
<g>
	<polygon points="967,103.01 928.1,103.01 849.3,171.48 812.21,103.01 768.62,103.01 819.02,197.8 803.36,211.4 814.88,233.53 
		830.77,219.9 868.48,290.81 913.94,290.81 861.33,193.68 	"/>
	<polygon points="780.94,194.16 797.65,179.77 785.93,158.28 769.41,172.48 732.48,103.01 557.72,103.01 523.81,204.36 
		670.25,204.36 676.58,181.63 573,181.63 590.88,126.86 701.18,126.86 739.35,198.32 659.07,267.33 543.56,267.33 560.7,216.29 
		519.71,216.29 495.12,290.81 668.76,290.81 750.93,220.02 788.74,290.81 832.34,290.81 	"/>
	<g>
		<polygon points="419.48,103.01 382.06,103.01 348.15,204.36 390.11,204.36 		"/>
		<polygon points="489.53,267.33 367.9,267.33 385.04,216.29 344.05,216.29 319.46,290.81 481.71,290.81 		"/>
	</g>
	<polygon points="241.76,126.86 362.89,126.86 370.84,103.01 208.6,103.01 174.69,204.36 319.18,204.36 326.75,181.63 
		223.88,181.63 	"/>
	<polygon points="211.58,216.29 170.59,216.29 146,290.81 188.88,290.81 	"/>
	<polygon points="886.74,103.01 850.22,103.01 831.51,119.09 844.24,139.62 	"/>
	<polygon points="711.98,290.81 748.13,290.81 766.07,275.41 754.02,254.28 	"/>
</g>
</svg>
