<?xml version="1.0" encoding="utf-8"?>
<!-- Generator: Adobe Illustrator 26.4.1, SVG Export Plug-In . SVG Version: 6.00 Build 0)  -->
<svg version="1.1" id="Layer_1" xmlns="http://www.w3.org/2000/svg" xmlns:xlink="http://www.w3.org/1999/xlink" x="0px" y="0px"
	 viewBox="0 0 961 390.5" style="enable-background:new 0 0 961 390.5;" xml:space="preserve">
<g>
	<g>
		<polygon points="733.39,101.22 696.98,101.22 678.31,117.25 691.01,137.72 		"/>
		<polygon points="465.47,101.22 281.9,288.5 326.87,288.5 478.03,129.85 493.52,181.85 444.66,181.85 419.76,208.24 501.38,208.24 
			511.61,242.56 542.73,215.95 504.49,101.22 		"/>
		<polygon points="559.11,288.5 595.16,288.5 613.05,273.14 601.04,252.07 		"/>
		<polygon points="627.89,192.12 644.55,177.76 632.86,156.33 616.39,170.49 579.55,101.22 535.63,101.22 586.4,196.27 
			479.39,288.5 516.01,288.5 597.96,217.9 635.66,288.5 679.14,288.5 		"/>
		<polygon points="813.44,101.22 774.64,101.22 696.06,169.5 659.07,101.22 615.6,101.22 665.86,195.74 650.24,209.31 
			661.73,231.38 677.58,217.78 715.18,288.5 760.52,288.5 708.05,191.64 		"/>
	</g>
	<path d="M372.36,146.83c-0.82-15.81-20.33-45.62-91.76-45.62h-69.12L149.84,288.5h39.72l25.06-75.01h51.49c0,0,0.05,0,0.06,0
		l24.55,46.09l28.4-28.4L307,208.4c18.05-4.2,38.29-11.85,52.3-25.86C369.26,171.06,373.19,162.65,372.36,146.83z M258.31,190.03
		h-35.67L244.56,125c21.18,0,86.21-6.31,85.09,30.84C328.54,193,258.31,190.03,258.31,190.03z"/>
</g>
</svg>
